<svg xmlns="http://www.w3.org/2000/svg" width="20.354" height="20.988" viewBox="0 0 20.354 20.988"><defs><style>.a{fill:#fff;}.b{fill:#e6e6e6;}</style></defs><g transform="translate(-7.734 -0.001)"><g transform="translate(19.165 0.877)"><path class="a" d="M287.514,23.206a.917.917,0,1,1,.917-.917A.918.918,0,0,1,287.514,23.206Z" transform="translate(-286.597 -21.372)"/></g><path class="b" d="M459.514,264.244h0a.917.917,0,1,1,.914,1A.917.917,0,0,1,459.514,264.244Z" transform="translate(-433.257 -252.614)"/><path class="b" d="M452.867,184.144a.917.917,0,1,1,1.123.649.929.929,0,0,1-.238.031A.917.917,0,0,1,452.867,184.144Z" transform="translate(-426.856 -175.487)"/><path class="b" d="M418.519,111.512a.917.917,0,1,1,.747.383A.917.917,0,0,1,418.519,111.512Z" transform="translate(-393.781 -105.548)"/><path class="b" d="M360.618,54.206a.917.917,0,1,1,.759,1.43A.917.917,0,0,1,360.618,54.206Z" transform="translate(-338.267 -51.595)"/><g transform="translate(25.356 13.985)"><path class="b" d="M438.547,342.97a.917.917,0,1,1,.917-.917A.918.918,0,0,1,438.547,342.97Z" transform="translate(-437.63 -341.136)"/></g><path class="a" d="M25.076,16.652a.917.917,0,0,0-1.23.059A8.369,8.369,0,1,1,14.159,3.317l.295,1.208a.367.367,0,0,0,.617.171l2.806-2.84a.367.367,0,0,0-.148-.607L13.93.019a.367.367,0,0,0-.469.436l.254,1.04A10.2,10.2,0,1,0,25.141,18.011.918.918,0,0,0,25.076,16.652Z" transform="translate(0 0)"/><path class="a" d="M463.164,263.419a.916.916,0,0,1-.781,1.366.917.917,0,1,0,.781-1.366Z" transform="translate(-436.012 -252.619)"/><path class="a" d="M457.394,183.674a.917.917,0,0,0-.9-.68.917.917,0,0,1-.782,1.366.918.918,0,0,0,.8.468.931.931,0,0,0,.238-.031A.918.918,0,0,0,457.394,183.674Z" transform="translate(-429.611 -175.492)"/><path class="a" d="M422.768,110.452a.915.915,0,0,0-.764-.383.917.917,0,0,1-.78,1.366.917.917,0,1,0,1.545-.983Z" transform="translate(-396.539 -105.556)"/><path class="a" d="M364.708,53.975a.913.913,0,0,0-.532-.156.916.916,0,0,1-.779,1.365.916.916,0,0,0,1.558.063A.917.917,0,0,0,364.708,53.975Z" transform="translate(-341.084 -51.612)"/><path class="a" d="M441.4,341.145a.938.938,0,0,0-.109,0,.916.916,0,0,1-.78,1.366.917.917,0,1,0,.889-1.362Z" transform="translate(-415.037 -327.155)"/><g transform="translate(12.721 16.443)"><path class="b" d="M141.747,401.312a.914.914,0,0,0-.626-.208.918.918,0,0,1-.14,1.122,10.215,10.215,0,0,1-11.589,1.992,10.21,10.21,0,0,0,12.42-1.548A.918.918,0,0,0,141.747,401.312Z" transform="translate(-129.392 -401.104)"/></g></g></svg>